<svg version="1.1" id="Layer_1" xmlns="http://www.w3.org/2000/svg" xmlns:xlink="http://www.w3.org/1999/xlink" x="0px" y="0px"
	 width="100%" viewBox="0 0 448 368" enable-background="new 0 0 448 368" xml:space="preserve">
<path fill="#000000" opacity="1.000000" stroke="none" 
	d="
M118.193665,234.804474 
	C125.607231,234.389175 132.607666,233.906708 139.144852,237.280487 
	C139.713593,237.574005 140.744858,237.979477 140.990097,237.742310 
	C145.549332,233.333298 151.123840,236.472946 156.147308,235.660934 
	C158.409119,235.295334 160.106552,236.285126 160.102631,238.922211 
	C160.074142,258.057770 161.262741,277.253571 159.616501,296.309967 
	C158.289520,311.670715 149.663559,319.811768 134.332855,321.921967 
	C122.669212,323.527374 111.515953,321.366669 101.239380,315.195221 
	C98.142075,313.335175 97.818192,311.484283 99.939926,308.837769 
	C100.147224,308.579224 100.309975,308.284912 100.493134,308.007019 
	C105.481140,300.439484 105.465378,300.476166 113.498352,303.924561 
	C120.096130,306.756805 126.916611,307.890381 133.904175,305.620850 
	C139.420197,303.829285 141.886475,299.789948 141.167618,294.393372 
	C115.191177,301.044769 97.966232,294.009125 93.000160,274.718994 
	C88.156326,255.903671 98.323769,239.539291 118.193665,234.804474 
M141.947205,260.775604 
	C137.998856,252.326218 132.518021,249.230896 123.255852,250.219635 
	C115.609924,251.035858 110.144882,257.150238 109.589043,265.510284 
	C109.102562,272.827179 114.184143,279.756439 120.976364,281.740753 
	C132.941895,285.236389 145.390366,275.725647 141.947205,260.775604 
z"/>
<path fill="#000000" opacity="1.000000" stroke="none" 
	d="
M350.297607,279.999298 
	C350.302582,284.992554 350.351532,289.486572 350.284698,293.978943 
	C350.265350,295.278870 350.313477,296.850983 349.641418,297.820496 
	C347.407806,301.042633 333.528992,298.815125 331.701050,294.617401 
	C322.695404,300.548553 312.994019,301.787415 302.754456,298.500916 
	C296.293884,296.427368 291.513550,292.243286 287.748810,286.731476 
	C279.611725,274.818268 280.683655,254.770706 290.041931,244.231720 
	C300.012177,233.003540 315.233673,231.308823 332.663177,239.962646 
	C332.663177,232.372757 332.910278,225.136292 332.576141,217.926773 
	C332.354034,213.134644 333.976746,211.532684 338.805389,211.662369 
	C352.211456,212.022400 350.216431,210.454422 350.279449,223.082397 
	C350.373322,241.887650 350.299805,260.693726 350.297607,279.999298 
M331.630524,274.860443 
	C333.722961,267.483795 333.969299,260.323181 328.113037,254.426208 
	C323.265778,249.545303 317.105194,249.274612 310.941376,250.982468 
	C303.642273,253.004913 300.057617,258.837341 300.177979,267.459167 
	C300.286865,275.258209 304.727112,281.641541 311.276123,283.413940 
	C319.906860,285.749725 326.684296,283.109650 331.630524,274.860443 
z"/>
<path fill="#000000" opacity="1.000000" stroke="none" 
	d="
M363.589966,262.736206 
	C364.977753,248.494812 373.900177,239.305649 389.760132,235.389389 
	C408.037811,230.876114 426.183167,241.850693 429.897614,259.665161 
	C432.589844,272.576996 431.206268,274.312134 418.241699,274.304962 
	C407.921844,274.299286 397.601807,274.269012 387.282318,274.329834 
	C385.535065,274.340179 383.627502,273.752838 382.048431,275.071167 
	C383.933685,281.420441 391.937256,285.640961 399.739258,284.407745 
	C403.740570,283.775299 407.593719,282.587402 410.578796,279.736328 
	C412.792114,277.622375 414.742645,277.613892 417.195160,279.243744 
	C420.215759,281.251190 423.413574,282.991913 426.979370,285.112274 
	C423.718719,291.088806 418.790680,294.515930 413.200012,297.144012 
	C393.898468,306.217346 369.494751,296.167206 364.411469,276.963287 
	C363.226135,272.485199 362.534302,267.842804 363.589966,262.736206 
M406.940063,260.895355 
	C411.432587,260.844116 411.181183,258.714172 409.050903,255.917252 
	C406.608521,252.710678 403.255920,250.962372 399.312134,250.438583 
	C391.041260,249.340057 383.748810,253.632782 382.757294,260.907166 
	C390.586792,260.907166 398.326721,260.907166 406.940063,260.895355 
z"/>
<path fill="#000000" opacity="1.000000" stroke="none" 
	d="
M216.744019,255.999847 
	C216.746887,250.340836 216.838013,245.179550 216.721130,240.022995 
	C216.648026,236.798126 218.036133,235.598648 221.205200,235.653107 
	C237.740326,235.937241 234.931580,233.466263 235.091370,248.581894 
	C235.247925,263.392426 235.003922,278.207428 235.191437,293.017242 
	C235.248291,297.507416 233.748734,299.554504 229.151505,299.151978 
	C227.004425,298.963959 224.825851,299.072754 222.663910,299.132294 
	C219.762909,299.212158 216.962524,299.153473 215.871643,295.648956 
	C211.336258,297.955902 207.127045,299.939484 202.369690,300.260468 
	C186.641861,301.321503 176.430908,292.291046 175.823318,276.060852 
	C175.375351,264.094421 175.765823,252.098160 175.662491,240.116226 
	C175.635254,236.956467 176.802582,235.600418 180.040329,235.661255 
	C196.456253,235.969772 193.821182,233.257034 194.074951,249.022537 
	C194.206177,257.175690 194.035355,265.334167 194.201614,273.486145 
	C194.358902,281.199158 197.606079,284.569031 204.578232,284.694061 
	C211.449905,284.817261 216.276932,280.506866 216.629196,273.472015 
	C216.911850,267.826782 216.723602,262.157928 216.744019,255.999847 
z"/>
<path fill="#000000" opacity="1.000000" stroke="none" 
	d="
M33.048347,231.350830 
	C24.663090,231.329025 24.661396,231.329025 24.658955,223.543945 
	C24.658432,221.879257 24.747238,220.211105 24.667662,218.550659 
	C24.534386,215.769730 25.847015,214.712646 28.556763,214.718887 
	C48.367310,214.764557 68.178024,214.762039 87.988617,214.732513 
	C90.413826,214.728897 91.814941,215.669724 91.849754,218.180176 
	C91.893600,221.341324 91.895103,224.503494 91.872864,227.664948 
	C91.853691,230.390747 90.410301,231.421616 87.734207,231.357758 
	C83.075638,231.246597 78.388855,231.627258 73.757500,231.256790 
	C68.951927,230.872391 67.827888,232.907364 67.873848,237.338425 
	C68.062057,255.482407 67.956680,273.629517 67.945686,291.775452 
	C67.941345,298.941956 67.805840,299.143494 60.740459,299.098083 
	C46.539761,299.006836 48.795712,300.596893 48.696762,287.341583 
	C48.571255,270.528320 48.528107,253.711594 48.757252,236.900558 
	C48.817909,232.450348 47.364471,230.892242 43.022392,231.298126 
	C39.886929,231.591217 36.701687,231.351791 33.048347,231.350830 
z"/>
<path fill="#000000" opacity="1.000000" stroke="none" 
	d="
M251.069992,265.000000 
	C251.088760,256.503815 251.134918,248.507523 251.109970,240.511459 
	C251.099411,237.130295 252.183289,235.573425 256.053375,235.557220 
	C269.334991,235.501709 269.337250,235.337921 269.333160,248.626205 
	C269.328583,263.619385 269.208649,278.613800 269.382080,293.604919 
	C269.429108,297.668427 268.183289,299.242950 263.984131,299.162079 
	C249.105331,298.875458 251.206329,300.673584 251.053391,286.490326 
	C250.977966,279.494415 251.058609,272.496826 251.069992,265.000000 
z"/>
<path fill="#000000" opacity="1.000000" stroke="none" 
	d="
M176.159363,78.304695 
	C178.407715,73.379776 181.274658,69.318222 184.515015,65.484650 
	C186.128967,63.575222 187.483185,63.364002 189.461548,65.175056 
	C193.756943,69.107201 198.246536,72.838097 203.504044,75.475960 
	C205.446869,76.450737 205.810242,77.837029 205.558762,79.967682 
	C204.916687,85.407188 204.498581,90.880531 204.212570,96.351929 
	C204.036118,99.727440 202.458191,101.054451 199.178864,101.030228 
	C191.188843,100.971191 183.196579,100.967155 175.207764,101.097137 
	C171.294403,101.160812 170.205978,99.224022 170.847031,95.763039 
	C171.938416,89.870689 173.126404,84.003082 176.159363,78.304695 
z"/>
<path fill="#000000" opacity="1.000000" stroke="none" 
	d="
M266.719360,64.578674 
	C269.314514,63.377728 270.358459,65.163666 271.478455,66.517761 
	C278.410828,74.899162 282.644592,84.485275 284.232727,95.256203 
	C284.811371,99.180679 283.621124,101.184715 279.267578,101.078789 
	C271.630798,100.892960 263.984039,100.914680 256.345917,101.069298 
	C252.472549,101.147705 250.879227,99.375793 250.896988,95.721481 
	C250.898590,95.389999 250.788254,95.043816 250.851471,94.728867 
	C252.108414,88.467293 246.477768,81.191010 251.443604,76.170204 
	C255.706131,71.860504 261.706512,68.997330 266.719360,64.578674 
z"/>
<path fill="#000000" opacity="1.000000" stroke="none" 
	d="
M185.098801,141.014404 
	C177.278671,132.352844 172.999359,122.383163 170.985031,111.372276 
	C170.020950,106.102371 170.762512,105.210320 176.199387,105.134911 
	C183.522263,105.033340 190.851349,105.216835 198.169495,104.999657 
	C202.378952,104.874741 204.468246,106.439278 204.253647,110.743362 
	C204.220596,111.406250 204.437271,112.112045 204.281525,112.733627 
	C202.806015,118.622864 209.204941,125.520073 203.219681,130.361099 
	C198.491669,134.185242 193.157440,137.379791 188.484055,141.394043 
	C187.419510,142.308441 186.371078,142.190918 185.098801,141.014404 
z"/>
<path fill="#000000" opacity="1.000000" stroke="none" 
	d="
M249.654022,125.342766 
	C250.150253,119.814438 250.603180,114.684143 251.111633,109.559357 
	C251.339920,107.258377 251.897446,105.530113 254.967667,105.543205 
	C263.122070,105.578011 271.278870,105.323776 279.432617,105.105042 
	C283.371613,104.999367 284.801636,106.762459 284.203033,110.618385 
	C282.531738,121.384689 278.411377,131.025772 271.510193,139.501755 
	C269.290680,142.227737 267.376648,142.921478 264.648682,140.082855 
	C261.069580,136.358582 257.175293,132.962677 252.291794,130.938507 
	C249.976791,129.978958 249.004379,128.250061 249.654022,125.342766 
z"/>
<path fill="#000000" opacity="1.000000" stroke="none" 
	d="
M246.111664,118.671799 
	C245.922668,119.773964 245.781036,120.425415 245.665390,121.081429 
	C244.523941,127.556900 244.564987,127.348488 238.261993,126.144783 
	C230.509689,124.664291 222.673386,124.680984 214.987961,126.619713 
	C211.560425,127.484337 210.000824,126.695992 209.665695,123.077171 
	C209.251831,118.607964 208.540588,114.181297 208.588760,109.658165 
	C208.619385,106.782722 209.589844,105.229958 212.561249,105.221382 
	C222.724274,105.192070 232.887283,105.145226 243.050308,105.145988 
	C245.727844,105.146187 246.941162,106.367760 246.600922,109.244675 
	C246.249878,112.212952 246.297745,115.228394 246.111664,118.671799 
z"/>
<path fill="#000000" opacity="1.000000" stroke="none" 
	d="
M246.295197,90.080933 
	C246.421600,101.025375 246.421600,101.025627 235.803329,101.029633 
	C228.309372,101.032455 220.812973,100.921822 213.322525,101.084984 
	C209.638184,101.165230 208.401016,99.837967 208.544968,96.090187 
	C208.717880,91.588280 209.262863,87.151047 209.702271,82.686943 
	C210.034271,79.314011 211.480652,78.671783 214.716537,79.431053 
	C223.075195,81.392296 231.580063,81.519318 239.937012,79.525726 
	C244.017700,78.552254 245.487305,79.658981 245.459091,83.711876 
	C245.445404,85.680000 245.990616,87.652023 246.295197,90.080933 
z"/>
<path fill="#000000" opacity="1.000000" stroke="none" 
	d="
M258.980591,170.152908 
	C253.328506,172.729141 247.871567,174.731491 242.139603,175.867477 
	C239.762421,176.338577 236.707962,177.400513 235.861343,173.994843 
	C234.995972,170.513763 238.101669,170.178665 240.544113,169.607590 
	C264.320068,164.048630 280.805084,149.907089 289.962494,127.319763 
	C291.511017,123.500244 292.353577,119.391876 293.467316,115.401627 
	C293.631622,114.813011 293.490143,114.139046 293.490143,113.397652 
	C291.276489,112.958130 288.540009,115.491615 287.273285,112.208626 
	C286.212616,109.459824 288.403687,107.947098 289.985931,106.302681 
	C297.873810,98.104752 298.566620,98.146233 306.446228,107.167908 
	C307.894440,108.826019 309.557739,110.612427 307.776337,112.841652 
	C306.030365,115.026543 304.226105,113.488800 302.527100,112.424202 
	C302.136383,112.179390 301.636292,112.109184 300.719788,111.802376 
	C296.255859,137.895996 283.042633,157.737610 258.980591,170.152908 
z"/>
<path fill="#000000" opacity="1.000000" stroke="none" 
	d="
M205.840881,38.875603 
	C182.700943,46.935234 165.264526,68.168152 161.687790,92.722816 
	C163.884949,92.575424 166.746567,90.665741 167.933167,93.839401 
	C169.040802,96.801849 166.471481,98.342697 164.776489,100.076073 
	C157.443054,107.575638 157.427124,107.561600 149.917130,99.982384 
	C149.214157,99.272919 148.494019,98.575912 147.843124,97.820320 
	C146.546860,96.315529 145.792984,94.624069 147.322556,92.913948 
	C148.727936,91.342674 150.316452,91.981056 151.804810,92.987831 
	C152.467224,93.435913 153.037415,94.153786 154.399292,93.723564 
	C155.939240,87.009819 157.446014,80.052727 160.395615,73.527687 
	C170.923660,50.237907 188.595047,35.759426 213.555191,30.178505 
	C215.996796,29.632576 218.596634,29.282827 219.283493,32.281799 
	C220.022766,35.509502 217.127975,35.830811 214.878418,36.418407 
	C211.984055,37.174423 209.096222,37.955330 205.840881,38.875603 
z"/>
<path fill="#000000" opacity="1.000000" stroke="none" 
	d="
M187.883484,157.096741 
	C196.666016,163.373444 205.908875,167.506378 216.282547,168.722855 
	C217.537582,166.582535 215.435471,163.691116 218.424225,162.736099 
	C221.168503,161.859192 222.724335,163.864410 224.389771,165.474091 
	C232.131836,172.957062 231.443344,177.927322 221.929214,183.435745 
	C220.531189,184.245163 219.112564,184.624527 217.762131,183.509705 
	C216.385513,182.373291 216.546188,180.849167 217.166702,179.401443 
	C217.548431,178.510818 218.165939,177.721252 218.660721,176.913803 
	C217.566742,175.361755 215.974319,175.590805 214.555145,175.280685 
	C183.795731,168.559280 163.767548,150.350342 155.443359,119.776199 
	C154.635605,116.809319 152.650345,112.296097 157.184464,111.369484 
	C161.034012,110.582764 160.731979,115.246147 161.401123,117.986412 
	C165.354858,134.177338 174.219376,147.048218 187.883484,157.096741 
z"/>
<path fill="#000000" opacity="1.000000" stroke="none" 
	d="
M293.648499,88.207489 
	C287.021118,58.816097 261.348846,39.901886 237.437210,37.075150 
	C237.450165,39.173370 239.722595,41.616932 237.005051,43.279194 
	C234.192657,44.999458 232.773071,42.392513 231.193710,40.879185 
	C222.838959,32.873764 222.844467,32.831783 231.114426,24.844019 
	C232.834503,23.182625 234.634018,20.413446 237.349503,22.573433 
	C240.162231,24.810801 237.280228,26.984989 236.344437,29.108681 
	C237.203690,30.816586 238.870407,30.419819 240.250031,30.721371 
	C271.131134,37.471313 291.447205,55.540752 299.858307,86.363487 
	C299.902039,86.523743 300.006195,86.678436 300.009399,86.837181 
	C300.065460,89.623550 302.380829,93.612923 298.419312,94.656670 
	C294.110718,95.791862 294.760040,91.105240 293.648499,88.207489 
z"/>
<path fill="#000000" opacity="1.000000" stroke="none" 
	d="
M228.715515,157.233276 
	C224.457565,157.732925 222.090195,155.388733 219.976715,152.729065 
	C215.958694,147.672668 214.000076,141.669464 212.185379,135.586426 
	C211.437653,133.080017 212.276047,131.769592 214.660919,131.193024 
	C223.385529,129.083679 232.117172,129.290482 240.836121,131.199478 
	C242.169327,131.491379 243.169830,132.109695 243.307037,133.835114 
	C243.811920,140.184357 235.298325,154.339584 228.715515,157.233276 
z"/>
<path fill="#000000" opacity="1.000000" stroke="none" 
	d="
M213.651474,65.860519 
	C215.287231,60.886364 217.262390,56.509052 220.416519,52.782784 
	C224.927551,47.453453 229.657288,47.264614 234.303802,52.375114 
	C239.130676,57.683998 241.311096,64.310989 243.061874,71.098694 
	C243.677475,73.485390 242.213181,74.482674 240.265701,74.930168 
	C231.730530,76.891464 223.088150,77.142776 214.673859,74.808479 
	C208.834412,73.188499 213.465546,69.192345 213.651474,65.860519 
z"/>
<path fill="#000000" opacity="1.000000" stroke="none" 
	d="
M217.600021,156.263153 
	C218.928650,158.661896 218.037018,159.369308 215.972610,158.923553 
	C207.417297,157.076157 199.558823,153.697495 192.667892,148.200531 
	C190.658585,146.597672 191.167007,145.202789 192.732330,143.684402 
	C195.721558,140.784821 198.911819,138.172791 202.485336,135.995132 
	C205.699921,134.036209 207.507751,134.457916 208.506821,138.379715 
	C210.159821,144.868622 212.896164,150.894180 217.600021,156.263153 
z"/>
<path fill="#000000" opacity="1.000000" stroke="none" 
	d="
M262.899963,144.144745 
	C264.423920,145.973083 263.746826,147.154099 262.393402,148.187515 
	C255.140884,153.725067 247.091309,157.484146 238.058716,159.006195 
	C237.670609,159.071609 237.203964,158.670853 236.015060,158.163284 
	C241.893356,151.916626 245.011688,144.508789 247.272766,136.673416 
	C248.008759,134.123047 249.748032,134.440643 251.589569,135.447449 
	C255.706802,137.698441 259.290680,140.651001 262.899963,144.144745 
z"/>
<path fill="#000000" opacity="1.000000" stroke="none" 
	d="
M203.450684,51.237846 
	C208.414520,49.416138 212.846497,47.045151 219.027039,47.084251 
	C213.042130,54.794930 209.582581,63.006374 206.991684,72.113602 
	C200.193665,69.257019 195.158798,65.292618 190.703247,60.058666 
	C194.308365,55.894737 198.861130,53.863068 203.450684,51.237846 
z"/>
<path fill="#000000" opacity="1.000000" stroke="none" 
	d="
M257.540436,54.347992 
	C259.927826,56.163639 262.348480,57.373436 264.279877,60.051113 
	C260.194672,65.314323 255.030121,69.073936 248.243729,72.079422 
	C245.415756,63.140053 242.341675,54.847481 235.837891,46.766373 
	C244.569321,47.874504 250.977737,50.782623 257.540436,54.347992 
z"/>
<path fill="#000000" opacity="1.000000" stroke="none" 
	d="
M251.883820,215.308777 
	C255.932190,209.005707 265.254974,209.117935 268.814301,215.700897 
	C270.822327,219.414734 270.337036,223.074799 267.527252,226.358139 
	C264.484711,229.913513 260.489532,230.231003 256.565674,228.888336 
	C252.623169,227.539307 250.510544,224.369431 250.670654,219.974380 
	C250.725876,218.457993 250.832230,216.977493 251.883820,215.308777 
z"/>
<path fill="#000000" opacity="1.000000" stroke="none" 
	d="
M330.961761,344.618866 
	C327.816315,343.914246 329.965942,347.756989 327.299438,347.839661 
	C325.993683,344.422485 326.525818,340.665344 326.894287,337.060242 
	C327.184021,334.225677 329.716431,334.742859 331.643127,335.187042 
	C334.192017,335.774597 336.542450,337.729431 335.047180,340.056183 
	C333.163513,342.987396 334.522034,345.284760 335.185608,348.279999 
	C332.552521,348.114777 332.197418,346.059784 330.961761,344.618866 
z"/>
<path fill="#000000" opacity="1.000000" stroke="none" 
	d="
M284.433380,348.964050 
	C279.831268,346.098328 278.301880,342.101776 280.323822,338.447144 
	C282.043457,335.338989 284.803558,334.031952 288.294281,335.176147 
	C292.196503,336.455200 293.777161,339.505768 293.180908,343.339874 
	C292.464752,347.944977 289.206726,349.488434 284.433380,348.964050 
M288.637299,337.922699 
	C283.621307,337.209381 280.553436,339.685394 282.116394,343.264648 
	C283.218079,345.787628 285.135773,347.659973 288.002655,346.189331 
	C291.663055,344.311646 291.642120,341.412720 288.637299,337.922699 
z"/>
<path fill="#000000" opacity="1.000000" stroke="none" 
	d="
M76.137894,341.209229 
	C77.776817,344.368073 78.405411,347.415436 74.567184,348.784607 
	C70.810158,350.124817 67.541916,348.703705 65.780502,345.153503 
	C63.985237,341.535065 65.169868,338.233307 68.402267,336.002625 
	C71.220139,334.057953 74.091095,333.961792 76.945602,337.721405 
	C72.336502,337.594757 67.088547,336.314545 67.624420,342.786621 
	C67.932884,346.512085 70.983253,347.102936 73.883461,346.395874 
	C75.596954,343.928802 72.501617,343.255798 72.869987,341.726318 
	C73.815727,340.661865 74.798981,340.834320 76.137894,341.209229 
z"/>
<path fill="#000000" opacity="1.000000" stroke="none" 
	d="
M125.972733,336.500977 
	C129.445236,333.711609 132.512421,335.088379 135.169556,337.123108 
	C137.289536,338.746490 137.755981,341.317871 136.897049,343.917053 
	C135.830460,347.144562 133.297119,348.479675 130.129929,348.956909 
	C127.314079,349.381226 125.571846,348.569214 125.666893,345.370209 
	C125.750504,342.556030 125.772705,339.740051 125.972733,336.500977 
M131.088577,337.583008 
	C128.954544,337.288910 127.196991,337.850189 127.621468,340.341125 
	C127.979012,342.439270 126.901054,345.294952 129.732559,346.416931 
	C131.271088,347.026550 132.610107,345.974060 133.593185,344.787811 
	C135.234467,342.807343 134.893509,340.820435 133.330887,338.975861 
	C132.919769,338.490540 132.284225,338.195343 131.088577,337.583008 
z"/>
<path fill="#000000" opacity="1.000000" stroke="none" 
	d="
M208.118347,343.308563 
	C204.825500,343.658142 205.813370,346.771606 203.810593,349.259369 
	C202.205612,344.069397 202.399902,339.953674 203.496658,335.183441 
	C206.098343,336.880005 204.648773,340.870148 208.447174,340.644012 
	C211.520737,340.460999 210.927948,337.597992 212.695419,335.762512 
	C213.897110,340.078156 213.229446,343.955292 213.183365,348.115540 
	C210.256058,347.245056 211.780487,343.050629 208.118347,343.308563 
z"/>
<path fill="#000000" opacity="1.000000" stroke="none" 
	d="
M229.732819,349.144287 
	C226.841278,349.265289 225.623718,348.133270 225.682968,345.618317 
	C225.725754,343.802246 225.642410,341.983398 225.674789,340.166840 
	C225.775421,334.521790 228.023224,333.373932 233.396332,336.212006 
	C233.003647,337.470245 231.883286,337.234131 230.971069,337.357819 
	C229.973175,337.493103 228.986786,337.581512 228.487137,338.724426 
	C228.640961,341.984375 232.375916,339.594879 233.302231,341.729187 
	C232.756882,344.346497 228.876022,342.057098 228.483810,345.086121 
	C229.268356,347.948975 232.392670,345.705200 234.027237,347.556885 
	C233.414215,349.556580 231.593491,348.973450 229.732819,349.144287 
z"/>
<path fill="#000000" opacity="1.000000" stroke="none" 
	d="
M151.106216,335.048187 
	C153.246399,335.047272 155.182068,334.249023 156.520096,336.134796 
	C155.365677,338.585602 151.652756,336.026978 150.905151,339.087097 
	C151.640198,341.983673 155.087006,339.498688 156.155258,341.788513 
	C155.476303,344.457489 151.218765,341.982391 151.019058,345.371429 
	C152.023590,347.903046 155.238846,345.562775 156.433029,347.730804 
	C151.046249,350.620422 148.526917,349.419312 148.747711,343.705139 
	C148.859070,340.822968 146.999634,337.276276 151.106216,335.048187 
z"/>
<path fill="#000000" opacity="1.000000" stroke="none" 
	d="
M97.356064,337.170898 
	C97.727661,336.618103 98.162140,336.217163 98.173065,336.228394 
	C100.793739,338.921783 99.636200,347.421875 96.389526,348.729065 
	C93.499077,349.892822 90.933975,349.095551 89.878906,346.098083 
	C88.735939,342.850922 88.188644,339.401611 90.290993,335.333710 
	C91.860725,337.907471 91.191147,340.186829 91.351517,342.276154 
	C91.502800,344.247223 91.988678,346.136963 94.195045,346.323151 
	C96.878952,346.549622 96.697395,344.251526 96.867355,342.470764 
	C97.024651,340.822662 97.106224,339.167389 97.356064,337.170898 
z"/>
<path fill="#000000" opacity="1.000000" stroke="none" 
	d="
M360.946716,339.615784 
	C362.358582,334.127075 364.546204,333.453217 368.550751,336.893585 
	C367.626373,339.232635 364.937256,336.291382 363.768738,338.913330 
	C364.684235,341.883209 373.540161,342.853760 367.202942,348.359863 
	C365.158020,350.136566 362.694550,349.506683 361.269470,346.739563 
	C362.847839,345.266815 365.189301,347.902771 366.319366,345.096771 
	C365.639160,342.479767 361.684265,342.828461 360.946716,339.615784 
z"/>
<path fill="#000000" opacity="1.000000" stroke="none" 
	d="
M309.886444,346.475769 
	C314.713409,344.016968 311.242737,338.989380 313.874054,335.083588 
	C315.822540,339.805237 315.399353,343.694824 313.333954,347.364410 
	C312.359863,349.095154 310.411194,349.501831 308.471375,348.966400 
	C306.583252,348.445251 305.019928,347.290924 304.879089,345.265930 
	C304.666870,342.214081 304.823761,339.136597 305.283020,336.016235 
	C307.654541,339.233887 304.479156,344.503113 309.886444,346.475769 
z"/>
<path fill="#000000" opacity="1.000000" stroke="none" 
	d="
M262.323914,338.279053 
	C261.382935,337.414337 260.645538,336.855133 259.403503,335.913239 
	C262.740356,334.562012 265.458405,334.504395 269.257507,335.841888 
	C262.816864,338.501160 266.734314,344.322754 264.341980,348.829773 
	C261.428284,345.306396 263.668121,341.641846 262.323914,338.279053 
z"/>
<path fill="#000000" opacity="1.000000" stroke="none" 
	d="
M189.266739,334.947937 
	C190.135208,335.353851 190.638138,335.714691 191.141083,336.075562 
	C186.349854,338.968658 189.446594,344.283020 187.442245,348.567902 
	C183.405228,345.018921 188.735733,338.455719 182.303818,336.243042 
	C184.667526,334.315430 186.861847,334.999939 189.266739,334.947937 
z"/>
<path fill="#000000" opacity="1.000000" stroke="none" 
	d="
M383.662903,342.940857 
	C383.636932,339.949585 384.311432,337.060486 378.928589,336.523712 
	C383.355804,334.422913 385.980927,334.728333 389.549194,335.756195 
	C383.891907,338.600067 387.453674,344.211548 385.032379,348.145203 
	C382.996216,346.613647 383.933258,344.839874 383.662903,342.940857 
z"/>
<path fill="#000000" opacity="1.000000" stroke="none" 
	d="
M349.289185,342.859009 
	C349.109283,344.869110 349.759277,346.615234 347.659088,348.651642 
	C346.054993,344.074677 346.708679,340.029114 347.069244,335.230774 
	C350.320526,337.566925 348.836365,340.246704 349.289185,342.859009 
z"/>
<path fill="#000000" opacity="1.000000" stroke="none" 
	d="
M111.266022,342.304443 
	C111.877655,340.086487 111.041847,337.979614 112.412231,336.195221 
	C113.662224,340.027405 113.694527,343.784668 112.468582,348.189178 
	C110.542976,346.554169 111.298569,344.520996 111.266022,342.304443 
z"/>
</svg>